<svg id="visual" viewBox="0 0 900 600" width="900" height="600" xmlns="http://www.w3.org/2000/svg" xmlns:xlink="http://www.w3.org/1999/xlink" version="1.1"><rect x="0" y="0" width="900" height="600" fill="#111"></rect><path d="M0 420L39 420L39 494L78 494L78 437L117 437L117 438L157 438L157 443L196 443L196 463L235 463L235 368L274 368L274 448L313 448L313 449L352 449L352 425L391 425L391 405L430 405L430 405L470 405L470 493L509 493L509 465L548 465L548 460L587 460L587 447L626 447L626 369L665 369L665 476L704 476L704 450L743 450L743 438L783 438L783 457L822 457L822 444L861 444L861 404L900 404L900 380L900 601L900 601L861 601L861 601L822 601L822 601L783 601L783 601L743 601L743 601L704 601L704 601L665 601L665 601L626 601L626 601L587 601L587 601L548 601L548 601L509 601L509 601L470 601L470 601L430 601L430 601L391 601L391 601L352 601L352 601L313 601L313 601L274 601L274 601L235 601L235 601L196 601L196 601L157 601L157 601L117 601L117 601L78 601L78 601L39 601L39 601L0 601Z" fill="#4d4c6d"></path><path d="M0 428L39 428L39 461L78 461L78 490L117 490L117 401L157 401L157 485L196 485L196 437L235 437L235 501L274 501L274 507L313 507L313 514L352 514L352 440L391 440L391 455L430 455L430 432L470 432L470 397L509 397L509 456L548 456L548 480L587 480L587 404L626 404L626 411L665 411L665 449L704 449L704 498L743 498L743 510L783 510L783 444L822 444L822 516L861 516L861 500L900 500L900 473L900 601L900 601L861 601L861 601L822 601L822 601L783 601L783 601L743 601L743 601L704 601L704 601L665 601L665 601L626 601L626 601L587 601L587 601L548 601L548 601L509 601L509 601L470 601L470 601L430 601L430 601L391 601L391 601L352 601L352 601L313 601L313 601L274 601L274 601L235 601L235 601L196 601L196 601L157 601L157 601L117 601L117 601L78 601L78 601L39 601L39 601L0 601Z" fill="#4b4766"></path><path d="M0 430L39 430L39 436L78 436L78 478L117 478L117 468L157 468L157 431L196 431L196 489L235 489L235 470L274 470L274 466L313 466L313 459L352 459L352 503L391 503L391 444L430 444L430 426L470 426L470 479L509 479L509 522L548 522L548 442L587 442L587 527L626 527L626 524L665 524L665 478L704 478L704 461L743 461L743 513L783 513L783 459L822 459L822 496L861 496L861 438L900 438L900 494L900 601L900 601L861 601L861 601L822 601L822 601L783 601L783 601L743 601L743 601L704 601L704 601L665 601L665 601L626 601L626 601L587 601L587 601L548 601L548 601L509 601L509 601L470 601L470 601L430 601L430 601L391 601L391 601L352 601L352 601L313 601L313 601L274 601L274 601L235 601L235 601L196 601L196 601L157 601L157 601L117 601L117 601L78 601L78 601L39 601L39 601L0 601Z" fill="#484260"></path><path d="M0 481L39 481L39 498L78 498L78 511L117 511L117 497L157 497L157 543L196 543L196 531L235 531L235 527L274 527L274 468L313 468L313 508L352 508L352 498L391 498L391 496L430 496L430 471L470 471L470 475L509 475L509 460L548 460L548 470L587 470L587 458L626 458L626 467L665 467L665 532L704 532L704 526L743 526L743 495L783 495L783 517L822 517L822 478L861 478L861 538L900 538L900 487L900 601L900 601L861 601L861 601L822 601L822 601L783 601L783 601L743 601L743 601L704 601L704 601L665 601L665 601L626 601L626 601L587 601L587 601L548 601L548 601L509 601L509 601L470 601L470 601L430 601L430 601L391 601L391 601L352 601L352 601L313 601L313 601L274 601L274 601L235 601L235 601L196 601L196 601L157 601L157 601L117 601L117 601L78 601L78 601L39 601L39 601L0 601Z" fill="#453d59"></path><path d="M0 557L39 557L39 522L78 522L78 527L117 527L117 494L157 494L157 517L196 517L196 516L235 516L235 495L274 495L274 516L313 516L313 494L352 494L352 551L391 551L391 541L430 541L430 511L470 511L470 526L509 526L509 532L548 532L548 528L587 528L587 488L626 488L626 528L665 528L665 518L704 518L704 533L743 533L743 524L783 524L783 527L822 527L822 543L861 543L861 517L900 517L900 549L900 601L900 601L861 601L861 601L822 601L822 601L783 601L783 601L743 601L743 601L704 601L704 601L665 601L665 601L626 601L626 601L587 601L587 601L548 601L548 601L509 601L509 601L470 601L470 601L430 601L430 601L391 601L391 601L352 601L352 601L313 601L313 601L274 601L274 601L235 601L235 601L196 601L196 601L157 601L157 601L117 601L117 601L78 601L78 601L39 601L39 601L0 601Z" fill="#423853"></path><path d="M0 568L39 568L39 530L78 530L78 529L117 529L117 568L157 568L157 576L196 576L196 577L235 577L235 577L274 577L274 545L313 545L313 520L352 520L352 555L391 555L391 569L430 569L430 527L470 527L470 538L509 538L509 524L548 524L548 521L587 521L587 578L626 578L626 549L665 549L665 568L704 568L704 533L743 533L743 524L783 524L783 522L822 522L822 536L861 536L861 562L900 562L900 560L900 601L900 601L861 601L861 601L822 601L822 601L783 601L783 601L743 601L743 601L704 601L704 601L665 601L665 601L626 601L626 601L587 601L587 601L548 601L548 601L509 601L509 601L470 601L470 601L430 601L430 601L391 601L391 601L352 601L352 601L313 601L313 601L274 601L274 601L235 601L235 601L196 601L196 601L157 601L157 601L117 601L117 601L78 601L78 601L39 601L39 601L0 601Z" fill="#3f344c"></path><path d="M0 552L39 552L39 570L78 570L78 568L117 568L117 568L157 568L157 553L196 553L196 565L235 565L235 589L274 589L274 577L313 577L313 584L352 584L352 564L391 564L391 557L430 557L430 574L470 574L470 565L509 565L509 548L548 548L548 577L587 577L587 568L626 568L626 552L665 552L665 564L704 564L704 584L743 584L743 574L783 574L783 582L822 582L822 579L861 579L861 558L900 558L900 558L900 601L900 601L861 601L861 601L822 601L822 601L783 601L783 601L743 601L743 601L704 601L704 601L665 601L665 601L626 601L626 601L587 601L587 601L548 601L548 601L509 601L509 601L470 601L470 601L430 601L430 601L391 601L391 601L352 601L352 601L313 601L313 601L274 601L274 601L235 601L235 601L196 601L196 601L157 601L157 601L117 601L117 601L78 601L78 601L39 601L39 601L0 601Z" fill="#3c2f46"></path></svg>